<svg width="72" height="55" viewBox="0 0 72 55" fill="none" xmlns="http://www.w3.org/2000/svg">
<path d="M36.225 18.0618C35.5505 18.0618 35.0034 18.5215 35.0034 19.0877C35.0034 19.6536 35.5505 20.1133 36.225 20.1133C36.8996 20.1133 37.4466 19.6536 37.4466 19.0877C37.4466 18.5215 36.8996 18.0618 36.225 18.0618Z" fill="black"/>
<path d="M28.8161 38.0993C29.293 37.6981 29.293 37.0489 28.8161 36.6477C28.3387 36.2478 27.5654 36.2478 27.0875 36.6477C26.6111 37.0489 26.6111 37.6981 27.0875 38.0993C27.5654 38.4992 28.3387 38.4992 28.8161 38.0993Z" fill="black"/>
<path d="M14.1338 54.6967C14.6074 55.0974 15.3783 55.1018 15.8581 54.7051L21.7814 49.8062C22.7877 48.9614 23.0937 47.7106 22.6512 46.6234L23.9253 45.5918C24.6113 45.0356 25.5145 44.729 26.4693 44.729H42.7112C45.5927 44.729 48.3161 43.8001 50.3808 42.1133C50.4658 42.0439 49.7359 42.7657 61.4613 31.0011C63.2004 29.2738 62.9402 26.6801 60.8808 25.2185C58.8342 23.7706 55.7685 23.9786 54.0246 25.6762L46.8152 31.8967C45.9049 30.9562 44.5167 30.3699 43.0167 30.3699H29.3928C27.4541 29.689 25.3971 29.3443 23.2747 29.3443C17.3933 29.3443 12.2553 31.6238 9.49748 35.9023C8.33601 35.7176 7.11105 36.0125 6.22981 36.7523L0.417703 41.646C-0.0568132 42.0455 -0.0577679 42.692 0.415793 43.0923L14.1338 54.6967ZM23.2742 31.3954C25.1455 31.3954 26.9548 31.7116 28.6528 32.3352C28.8075 32.3921 28.9741 32.4213 29.1426 32.4213H43.0167C44.3415 32.4213 45.4604 33.3283 45.4604 34.4724C45.4604 35.6038 44.3644 36.5239 43.0167 36.5239H33.0486C32.374 36.5239 31.8269 36.9832 31.8269 37.5494C31.8269 38.1161 32.374 38.575 33.0486 38.575H43.0167C45.7115 38.575 47.9037 36.7347 47.9037 34.4724C47.9037 34.2921 47.8884 34.1133 47.8607 33.9362C54.8348 27.918 55.8182 27.0724 55.8602 27.0303C56.7309 26.1675 58.2767 26.0581 59.3049 26.7859C60.3342 27.5165 60.4645 28.8133 59.5914 29.681L48.6331 40.6786C47.0329 41.9682 44.932 42.6779 42.7112 42.6779H26.4693C24.8777 42.6779 23.3711 43.1889 22.2283 44.1159L21.1899 44.957L11.6185 36.9223C13.8555 33.3992 18.0531 31.3954 23.2742 31.3954ZM7.95888 38.2019C8.36179 37.8636 8.98047 37.8027 9.4717 38.0576C9.65835 38.153 20.1082 46.9472 20.1727 47.0197C20.5302 47.4241 20.4791 47.9984 20.0605 48.3503L15.0107 52.5266L3.00606 42.3718L7.95888 38.2019Z" fill="#643C20"/>
<path d="M19.1205 24.2158H48.4427C50.4639 24.2158 52.108 22.8356 52.108 21.1388C52.108 18.5535 52.108 7.40804 52.108 5.54893C52.108 3.85212 50.4639 2.47191 48.4427 2.47191H19.1205C17.0993 2.47191 15.4552 3.85212 15.4552 5.54893V21.1388C15.4552 22.8356 17.0993 24.2158 19.1205 24.2158ZM49.6643 10.677H17.8989V8.62594H49.6643V10.677ZM48.4427 22.1647H19.1205C18.4469 22.1647 17.8989 21.7043 17.8989 21.1388V12.7285H49.6643V21.1388C49.6643 21.7043 49.1162 22.1647 48.4427 22.1647ZM19.1205 4.52339H48.4427C49.1162 4.52339 49.6643 4.98346 49.6643 5.54893V6.57447H17.8989V5.54893C17.8989 4.98346 18.4469 4.52339 19.1205 4.52339Z" fill="#643C20"/>
<path d="M45.9989 18.0618H41.112C40.4375 18.0618 39.8904 18.5211 39.8904 19.0877C39.8904 19.654 40.4375 20.1133 41.112 20.1133H45.9989C46.674 20.1133 47.221 19.654 47.221 19.0877C47.221 18.5211 46.674 18.0618 45.9989 18.0618Z" fill="black"/>
</svg>
