<svg width="48" height="32" viewBox="0 0 48 32" fill="none" xmlns="http://www.w3.org/2000/svg">
<path d="M0.5 31.5V13.4306L7.36631 0.816308L20.5 13.5154V31.5H0.5Z" stroke="white"/>
<path d="M9.274 27.758V23.78L5.098 16.58L4.108 16.436V15.356H8.878V16.418L7.672 16.58L10.246 21.566L10.624 22.448L10.984 21.53L13.252 16.616L11.794 16.436V15.356H16.168V16.436L15.016 16.706L11.488 23.69V27.74L13.558 28.064V29H7.348V28.064L9.274 27.758ZM23.5235 15.23C24.6995 15.23 25.7315 15.518 26.6195 16.094C27.5075 16.67 28.1915 17.462 28.6715 18.47C29.1515 19.478 29.3915 20.618 29.3915 21.89C29.3915 23.366 29.1155 24.662 28.5635 25.778C28.0235 26.882 27.2735 27.74 26.3135 28.352C25.3535 28.952 24.2735 29.252 23.0735 29.252C21.8735 29.252 20.8115 28.964 19.8875 28.388C18.9635 27.812 18.2495 27.02 17.7455 26.012C17.2415 24.992 16.9895 23.84 16.9895 22.556C16.9895 21.116 17.2775 19.838 17.8535 18.722C18.4415 17.606 19.2215 16.754 20.1935 16.166C21.2255 15.542 22.3355 15.23 23.5235 15.23ZM23.2535 16.346C22.0055 16.346 21.0575 16.886 20.4095 17.966C19.7735 19.034 19.4555 20.504 19.4555 22.376C19.4555 23.36 19.6055 24.296 19.9055 25.184C20.2175 26.06 20.6615 26.774 21.2375 27.326C21.8135 27.866 22.4975 28.136 23.2895 28.136C24.5255 28.136 25.4375 27.608 26.0255 26.552C26.6255 25.484 26.9255 23.996 26.9255 22.088C26.9255 21.044 26.7755 20.084 26.4755 19.208C26.1875 18.332 25.7615 17.636 25.1975 17.12C24.6455 16.604 23.9975 16.346 23.2535 16.346ZM43.7664 16.436L42.4164 16.616V23.024C42.4164 25.088 41.9724 26.642 41.0844 27.686C40.1964 28.73 38.9364 29.252 37.3044 29.252C35.3604 29.252 33.9444 28.76 33.0564 27.776C32.1804 26.792 31.7424 25.298 31.7424 23.294L31.7784 16.598L30.3744 16.436V15.356H35.5404V16.436L33.9924 16.616V23.366C33.9924 25.034 34.3044 26.24 34.9284 26.984C35.5524 27.728 36.4524 28.1 37.6284 28.1C39.7884 28.1 40.8684 26.408 40.8684 23.024L40.8504 16.616L39.3024 16.436V15.356H43.7664V16.436Z" fill="#745036"/>
</svg>
