<svg width="55" height="21" viewBox="0 0 55 21" fill="none" xmlns="http://www.w3.org/2000/svg">
<path d="M0.966789 20C0.966789 8.95431 9.92109 0 20.9668 0H54.7675V1C54.7675 12.0457 45.8132 21 34.7675 21H0.966789V20Z" fill="#E76509"/>
<path d="M21.3512 5.9V15H19.6222L15.0852 9.475V15H13.0052V5.9H14.7472L19.2712 11.425V5.9H21.3512ZM30.2122 11.529C30.2122 11.555 30.1992 11.737 30.1732 12.075H24.8822C24.9776 12.5083 25.2029 12.8507 25.5582 13.102C25.9136 13.3533 26.3556 13.479 26.8842 13.479C27.2482 13.479 27.5689 13.427 27.8462 13.323C28.1322 13.2103 28.3966 13.037 28.6392 12.803L29.7182 13.973C29.0596 14.727 28.0976 15.104 26.8322 15.104C26.0436 15.104 25.3459 14.9523 24.7392 14.649C24.1326 14.337 23.6646 13.908 23.3352 13.362C23.0059 12.816 22.8412 12.1963 22.8412 11.503C22.8412 10.8183 23.0016 10.203 23.3222 9.657C23.6516 9.10233 24.0979 8.67333 24.6612 8.37C25.2332 8.058 25.8702 7.902 26.5722 7.902C27.2569 7.902 27.8766 8.04933 28.4312 8.344C28.9859 8.63867 29.4192 9.06333 29.7312 9.618C30.0519 10.164 30.2122 10.801 30.2122 11.529ZM26.5852 9.436C26.1259 9.436 25.7402 9.566 25.4282 9.826C25.1162 10.086 24.9256 10.4413 24.8562 10.892H28.3012C28.2319 10.45 28.0412 10.099 27.7292 9.839C27.4172 9.57033 27.0359 9.436 26.5852 9.436ZM42.6674 8.006L40.1324 15H38.1824L36.6094 10.658L34.9844 15H33.0344L30.5124 8.006H32.4234L34.0744 12.738L35.7904 8.006H37.5064L39.1704 12.738L40.8734 8.006H42.6674Z" fill="white"/>
</svg>
