<svg width="16" height="16" viewBox="0 0 16 16" fill="none" xmlns="http://www.w3.org/2000/svg">
<path d="M6.6254 9.37459C5.09823 7.84742 4.7534 6.32025 4.67561 5.70838C4.65387 5.5392 4.71209 5.36954 4.83312 5.24935L6.06899 4.01404C6.25078 3.83236 6.28305 3.54921 6.14678 3.33128L4.17906 0.275833C4.0283 0.0345219 3.71876 -0.0525695 3.4643 0.0747292L0.3054 1.56245C0.0996235 1.66378 -0.0214116 1.88241 0.00195206 2.11059C0.167469 3.68301 0.852986 7.54838 4.65161 11.3473C8.45023 15.1462 12.3151 15.8314 13.8883 15.9969C14.1165 16.0203 14.3351 15.8993 14.4364 15.6935L15.9242 12.5346C16.051 12.2807 15.9645 11.972 15.7242 11.8209L12.6687 9.85376C12.4509 9.71736 12.1678 9.74939 11.986 9.93101L10.7506 11.1669C10.6305 11.2879 10.4608 11.3461 10.2916 11.3244C9.67974 11.2466 8.15257 10.9018 6.6254 9.37459Z" fill="white"/>
<path d="M12.6897 8.55164C12.385 8.55164 12.138 8.30463 12.138 7.99992C12.1354 5.71568 10.2843 3.86458 8.00003 3.86199C7.69532 3.86199 7.4483 3.61498 7.4483 3.31027C7.4483 3.00556 7.69532 2.75854 8.00003 2.75854C10.8934 2.76174 13.2382 5.10651 13.2414 7.99992C13.2414 8.30463 12.9944 8.55164 12.6897 8.55164Z" fill="white"/>
<path d="M15.4483 8.55173C15.1436 8.55173 14.8966 8.30471 14.8966 8C14.8923 4.1929 11.8071 1.10771 8.00003 1.10345C7.69532 1.10345 7.4483 0.856433 7.4483 0.551724C7.4483 0.247015 7.69532 0 8.00003 0C12.4163 0.00486507 15.9952 3.58374 16 8C16 8.14633 15.9419 8.28666 15.8384 8.39013C15.735 8.4936 15.5946 8.55173 15.4483 8.55173Z" fill="white"/>
</svg>
