<svg width="13" height="13" viewBox="0 0 13 13" fill="none" xmlns="http://www.w3.org/2000/svg">
<path d="M12.6903 12.5845L9.04326 8.79168C9.97348 7.85876 10.5498 6.57265 10.5498 5.15425C10.5498 2.31205 8.23772 0 5.39552 0C2.55332 0 0.241272 2.31205 0.241272 5.15425C0.241272 7.99645 2.55332 10.3085 5.39552 10.3085C6.6431 10.3085 7.78808 9.86253 8.6805 9.12253L12.3363 12.9246C12.3844 12.975 12.4487 13 12.5133 13C12.5747 13 12.6358 12.9772 12.6834 12.9315C12.7811 12.8375 12.784 12.6822 12.6903 12.5845ZM5.39552 9.81762C2.82404 9.81762 0.732153 7.72573 0.732153 5.15425C0.732153 2.58277 2.82404 0.490881 5.39552 0.490881C7.967 0.490881 10.0589 2.58277 10.0589 5.15425C10.0589 7.72573 7.96676 9.81762 5.39552 9.81762Z" fill="white"/>
</svg>
