<svg width="68" height="55" viewBox="0 0 68 55" fill="none" xmlns="http://www.w3.org/2000/svg">
<g clip-path="url(#clip0)">
<path d="M57.0189 13.5745H46.0233V10.6795C46.0233 4.79079 40.1004 0 32.8196 0C25.5388 0 19.6161 4.79079 19.6161 10.6795V13.5745H10.1423C9.34347 13.5745 8.69548 14.0982 8.69548 14.7448L0.563477 53.8295C0.563477 54.4762 1.21089 55.0001 2.01104 55.0001H65.9887C66.7882 55.0001 67.4365 54.4762 67.4365 53.8295L58.4661 14.7448C58.4661 14.098 57.8184 13.5745 57.0189 13.5745ZM22.5092 10.6795C22.5092 6.08121 27.1348 2.34061 32.8188 2.34061C38.504 2.34061 43.1293 6.08191 43.1293 10.6795V13.5745H22.5092V10.6795ZM64.5427 52.6594H3.45732L11.5883 15.9146H19.6148V21.0681C18.9167 21.446 18.4578 22.0887 18.4578 22.8188C18.4578 23.9818 19.6224 24.9252 21.0616 24.9252C22.4991 24.9252 23.666 23.9826 23.666 22.8188C23.666 22.0881 23.2057 21.446 22.5079 21.0681V15.9146H43.13V21.0681C42.432 21.446 41.9724 22.0887 41.9724 22.8188C41.9724 23.9818 43.1375 24.9252 44.5767 24.9252C46.0145 24.9252 47.1809 23.9826 47.1809 22.8188C47.1809 22.0881 46.7201 21.446 46.0226 21.0681V15.9146H55.5716L64.5427 52.6594Z" fill="#673D1E"/>
</g>
<defs>
<clipPath id="clip0">
<rect width="68" height="55" fill="white"/>
</clipPath>
</defs>
</svg>
