<svg width="79" height="79" viewBox="0 0 79 79" fill="none" xmlns="http://www.w3.org/2000/svg">
<path d="M73.9995 27.4691L61.0584 12.8567C60.2577 11.9484 59.3054 11.2282 58.2566 10.7378C57.2078 10.2475 56.0834 9.99673 54.9482 10H6.17188C5.18975 10 4.24784 10.4405 3.55337 11.2245C2.8589 12.0085 2.46875 13.0718 2.46875 14.1806V47.6249C2.47071 49.4721 3.12159 51.2431 4.27862 52.5493C5.43564 53.8555 7.00434 54.5903 8.64062 54.5925H9.97375C10.2689 56.9125 11.295 59.0346 12.864 60.5696C14.4329 62.1046 16.4395 62.9496 18.5156 62.9496C20.5918 62.9496 22.5983 62.1046 24.1673 60.5696C25.7362 59.0346 26.7624 56.9125 27.0575 54.5925H51.9425C52.2376 56.9125 53.2638 59.0346 54.8327 60.5696C56.4017 62.1046 58.4082 62.9496 60.4844 62.9496C62.5605 62.9496 64.5671 62.1046 66.136 60.5696C67.705 59.0346 68.7311 56.9125 69.0262 54.5925H72.8281C73.8103 54.5925 74.7522 54.152 75.4466 53.368C76.1411 52.584 76.5312 51.5207 76.5312 50.4119V34.3656C76.5343 33.0842 76.3121 31.8148 75.8776 30.631C75.443 29.4472 74.8046 28.3725 73.9995 27.4691ZM72.3047 29.5092H49.375V18.3611H62.4421L72.2541 29.4396C72.2739 29.4619 72.2862 29.4869 72.3047 29.5092ZM46.9062 29.5092H9.875V18.3611H46.9062V29.5092ZM4.9375 47.6249V37.8703H8.64062V35.0833H4.9375V14.1806C4.9375 13.811 5.06755 13.4565 5.29904 13.1952C5.53053 12.9339 5.8445 12.7871 6.17188 12.7871H54.9482C55.759 12.7848 56.5622 12.964 57.3114 13.3141C58.0605 13.6643 58.7408 14.1785 59.313 14.8272L59.9733 15.5741H9.875C9.22025 15.5741 8.59231 15.8677 8.12933 16.3904C7.66635 16.9131 7.40625 17.622 7.40625 18.3611V29.5092C7.40625 30.2484 7.66635 30.9573 8.12933 31.48C8.59231 32.0026 9.22025 32.2963 9.875 32.2963H46.9062V51.8055H27.0575C26.7624 49.4854 25.7362 47.3633 24.1673 45.8283C22.5983 44.2933 20.5918 43.4483 18.5156 43.4483C16.4395 43.4483 14.4329 44.2933 12.864 45.8283C11.295 47.3633 10.2689 49.4854 9.97375 51.8055H8.64062C7.65849 51.8055 6.71659 51.365 6.02212 50.581C5.32765 49.797 4.9375 48.7337 4.9375 47.6249ZM18.5156 60.1665C17.2949 60.1665 16.1017 59.7579 15.0867 58.9923C14.0718 58.2267 13.2807 57.1385 12.8136 55.8653C12.3464 54.5922 12.2242 53.1912 12.4623 51.8397C12.7005 50.4881 13.2883 49.2466 14.1515 48.2722C15.0146 47.2977 16.1143 46.6341 17.3116 46.3653C18.5088 46.0964 19.7497 46.2344 20.8775 46.7618C22.0053 47.2891 22.9692 48.1822 23.6474 49.328C24.3255 50.4738 24.6875 51.8209 24.6875 53.199C24.6855 55.0462 24.0347 56.8172 22.8776 58.1233C21.7206 59.4295 20.1519 60.1643 18.5156 60.1665ZM60.4844 60.1665C59.2637 60.1665 58.0704 59.7579 57.0555 58.9923C56.0405 58.2267 55.2494 57.1385 54.7823 55.8653C54.3152 54.5922 54.1929 53.1912 54.4311 51.8397C54.6692 50.4881 55.257 49.2466 56.1202 48.2722C56.9834 47.2977 58.0831 46.6341 59.2803 46.3653C60.4775 46.0964 61.7185 46.2344 62.8462 46.7618C63.974 47.2891 64.9379 48.1822 65.6161 49.328C66.2943 50.4738 66.6562 51.8209 66.6562 53.199C66.6543 55.0462 66.0034 56.8172 64.8464 58.1233C63.6894 59.4295 62.1207 60.1643 60.4844 60.1665ZM72.8281 51.8055H69.0262C68.7311 49.4854 67.705 47.3633 66.136 45.8283C64.5671 44.2933 62.5605 43.4483 60.4844 43.4483C58.4082 43.4483 56.4017 44.2933 54.8327 45.8283C53.2638 47.3633 52.2376 49.4854 51.9425 51.8055H49.375V32.2963H73.7564C73.9503 32.9647 74.0536 33.6623 74.0625 34.3656V35.0833H70.3594C69.3772 35.0833 68.4353 35.5237 67.7409 36.3077C67.0464 37.0917 66.6562 38.1551 66.6562 39.2638C66.6562 40.3726 67.0464 41.4359 67.7409 42.2199C68.4353 43.0039 69.3772 43.4444 70.3594 43.4444H74.0625V46.2314H70.3594V49.0184H74.0625V50.4119C74.0625 50.7815 73.9324 51.136 73.701 51.3973C73.4695 51.6586 73.1555 51.8055 72.8281 51.8055ZM74.0625 37.8703V40.6573H70.3594C70.032 40.6573 69.718 40.5105 69.4865 40.2492C69.2551 39.9879 69.125 39.6334 69.125 39.2638C69.125 38.8942 69.2551 38.5398 69.4865 38.2785C69.718 38.0171 70.032 37.8703 70.3594 37.8703H74.0625Z" fill="#633C20"/>
<path d="M51.8438 35.0833H56.7812V37.8703H51.8438V35.0833Z" fill="black"/>
<path d="M17.2812 51.8055H19.75V54.5925H17.2812V51.8055Z" fill="black"/>
<path d="M59.25 51.8055H61.7188V54.5925H59.25V51.8055Z" fill="black"/>
</svg>
