<svg width="20" height="15" viewBox="0 0 20 15" fill="none" xmlns="http://www.w3.org/2000/svg">
<path d="M6.44379 11.9298H6.4447C6.44546 11.9298 6.44623 11.9297 6.44699 11.9297H17.0703C17.3318 11.9297 17.5618 11.7562 17.6337 11.5047L19.9774 3.30161C20.0279 3.12476 19.9925 2.93463 19.8819 2.78784C19.7711 2.64105 19.5979 2.55469 19.4141 2.55469H5.09247L4.67361 0.669769C4.61395 0.401672 4.37622 0.210938 4.10156 0.210938H0.585937C0.262299 0.210938 0 0.473236 0 0.796875C0 1.12051 0.262299 1.38281 0.585937 1.38281H3.63159C3.70575 1.71683 5.63599 10.403 5.74707 10.9028C5.12436 11.1735 4.6875 11.7943 4.6875 12.5156C4.6875 13.4849 5.47607 14.2734 6.44531 14.2734H17.0703C17.3939 14.2734 17.6562 14.0111 17.6562 13.6875C17.6562 13.3639 17.3939 13.1016 17.0703 13.1016H6.44531C6.12228 13.1016 5.85937 12.8387 5.85937 12.5156C5.85937 12.1931 6.12137 11.9306 6.44379 11.9298ZM18.6372 3.72656L16.6283 10.7578H6.91528L5.35278 3.72656H18.6372Z" fill="white"/>
</svg>
